<svg xmlns="http://www.w3.org/2000/svg" version="1.1" xmlns:xlink="http://www.w3.org/1999/xlink" xmlns:svgjs="http://svgjs.dev/svgjs" width="100%" height="100%" viewBox="0 0 1000 600"><rect width="1000" height="600" x="0" y="0" fill="#f07a1a"/><g><circle r="166.66666666666666" cx="400.30446879069007" cy="422.52666831888257" fill="#ffffff" transform="matrix(0.5350161728318196,0,0,0.5350161728318196,0,73.94138755256004)"/><path d="M287.26916707607916 497.5266649068388Q278.3281948801741 497.5266649068388 272.8883800813711 491.6817575166355Q267.47750046766805 485.86578531153225 265.19162084476676 473.56833164402536L265.19162084476676 473.56833164402536L242.47750054125405 356.6991190250598Q242.0724079498538 354.61578569785866 242.0724079498538 353.7766653299582L242.0724079498538 353.7766653299582Q242.0724079498538 347.5266653483547 249.16152829935777 347.5266653483547L249.16152829935777 347.5266653483547Q253.53074124946022 347.5266653483547 255.41152828096128 349.4074523798557Q257.2633801273623 351.2882394113568 257.89995419956267 355.0208782892589L257.89995419956267 355.0208782892589L279.97750043087507 473.97342423542557Q281.0191670944757 479.81833162562884 282.6974078302766 482.0174056932301Q284.3467133809775 484.1875445757313 287.4717133717793 484.1875445757313L287.4717133717793 484.1875445757313Q290.82819484338114 484.1875445757313 292.4775003940821 481.78592421242996Q294.15574112988304 479.41323903422864 294.9948614977835 474.2049057162257L294.9948614977835 474.2049057162257L311.4300466345927 366.91323936536554Q312.90574107469354 357.30675791216015 317.59324106089616 352.4167116302574Q322.2807410470988 347.5266653483547 329.5724076923029 347.5266653483547L329.5724076923029 347.5266653483547Q344.5608335741113 347.5266653483547 347.48328726921295 366.91323936536554L347.48328726921295 366.91323936536554L363.94740759112216 474.2049057162257Q364.7865279590226 479.6157853299287 366.4358335097236 481.90166495283006Q368.11407424552453 484.1875445757313 371.4416205320264 484.1875445757313L371.4416205320264 484.1875445757313Q374.364074227128 484.1875445757313 376.129120518229 481.90166495283006Q377.89416680933 479.6157853299287 378.93583347293054 473.97342423542557L378.93583347293054 473.97342423542557L401.01337970424294 355.0208782892589Q401.64995377644334 351.05675793055667 403.6175463632444 349.2917116394557Q405.61407413514553 347.5266653483547 409.7807407895479 347.5266653483547L409.7807407895479 347.5266653483547Q416.86986113905186 347.5266653483547 416.86986113905186 353.7766653299582L416.86986113905186 353.7766653299582Q416.86986113905186 354.61578569785866 416.43583336255165 356.6991190250598L416.43583336255165 356.6991190250598L393.72171305903885 473.56833164402536Q391.4358334361376 485.2292112393319 386.3432408585347 491.39240566563535Q381.2217130958319 497.5266649068388 371.6441668277265 497.5266649068388L371.6441668277265 497.5266649068388Q362.7031946318215 497.5266649068388 357.58166686911864 491.6817575166355Q352.48907429151575 485.86578531153225 350.60828726001466 473.7708779397255L350.60828726001466 473.7708779397255L334.34671323380553 368.5625449160665Q333.73907434670525 364.39587826166417 332.5816669427046 362.6308319705631Q331.4531947238039 360.8657856794622 329.5724076923029 360.8657856794622L329.5724076923029 360.8657856794622Q327.4890743651017 360.8657856794622 326.33166696110106 362.6308319705631Q325.2031947422004 364.39587826166417 324.5666206700001 368.5625449160665L324.5666206700001 368.5625449160665L308.30504664379094 473.7708779397255Q306.4531947973899 485.86578531153225 301.33166703468703 491.6817575166355Q296.2390744570842 497.5266649068388 287.26916707607916 497.5266649068388L287.26916707607916 497.5266649068388ZM504.1383794007007 497.5266649068388Q484.1441664965896 497.5266649068388 467.39069432368024 490.755831593435Q450.60828696567074 483.98499828003116 441.2332869932655 472.12157238902455L441.2332869932655 472.12157238902455Q439.5550462574646 470.0382390618234 439.5550462574646 467.7234242538221L439.5550462574646 467.7234242538221Q439.5550462574646 464.82990574382046 442.6800462482663 462.10999834441895L442.6800462482663 462.10999834441895Q444.35828698406726 460.8657853851182 446.23907401556835 460.8657853851182L446.23907401556835 460.8657853851182Q449.9717128934704 460.8657853851182 452.89416658857203 464.3958779673202L452.89416658857203 464.3958779673202Q461.4300461930768 473.7708779397255 474.4508794880842 478.89240570242833Q487.47171278309145 483.98499828003116 504.1383794007007 483.98499828003116L504.1383794007007 483.98499828003116Q522.4832867541111 483.98499828003116 532.4948607987167 477.21416496662744Q542.4774996582223 470.4433316532236 542.4774996582223 457.94333169001663L542.4774996582223 457.94333169001663Q542.4774996582223 447.1215724626105 532.7842126497169 440.43754470450676Q523.1198608263114 433.7824521315031 499.9717127462984 428.57411881350015L499.9717127462984 428.57411881350015Q469.76337950188156 421.8900910553964 456.53999991117416 411.7917114554907Q443.31662032046665 401.69333185558503 443.31662032046665 385.02666523797575L443.31662032046665 385.02666523797575Q443.31662032046665 367.723424548166 458.01569435127493 357.6250449482603Q472.68583319698314 347.5266653483547 497.6858331233972 347.5266653483547L497.6858331233972 347.5266653483547Q516.6383793639078 347.5266653483547 531.9740274669164 354.18175792135844Q547.280740384825 360.8657856794622 553.7332866621285 372.12157268336847L553.7332866621285 372.12157268336847Q554.9774996214293 374.20490601056963 554.9774996214293 376.05675785697065L554.9774996214293 376.05675785697065Q554.9774996214293 379.41323932857256 551.4474070392273 381.9016652471739L551.4474070392273 381.9016652471739Q549.9717125991265 382.7407856150744 548.1198607527255 382.7407856150744L548.1198607527255 382.7407856150744Q543.5191663218228 382.7407856150744 541.0307404032214 379.1817578477724L541.0307404032214 379.1817578477724Q534.983286717318 370.4433319475675 523.9300460091118 365.7558319613649Q512.9057404860057 361.06833197516227 497.6858331233972 361.06833197516227L497.6858331233972 361.06833197516227Q459.14416657017557 361.06833197516227 459.14416657017557 385.02666523797575L459.14416657017557 385.02666523797575Q459.14416657017557 392.3183318831798 463.10828692887776 397.20837816508254Q467.07240728758 402.0984244469853 475.92657392818495 405.97573925038745Q484.78074056878995 409.8241188686896 500.60828681849875 413.5567577465917L500.60828681849875 413.5567577465917Q531.4531941351161 420.8484243917958 544.9948607619236 431.17828547250156Q558.5365273887313 441.47921136810737 558.5365273887313 457.94333169001663L558.5365273887313 457.94333169001663Q558.5365273887313 476.28823904342687 543.8374533579231 486.90745197513286Q529.1383793271148 497.5266649068388 504.1383794007007 497.5266649068388L504.1383794007007 497.5266649068388Z " fill="#f07a1a" transform="matrix(0.5350161728318196,0,0,0.5350161728318196,0,73.94138755256004)"/><path d="M681.0605675699878 456.55134177058665Q674.9762935066742 456.55134177058665 671.2745345296421 452.5739198910095Q667.5924657599345 448.616188218757 666.036939381288 440.24785010578523L666.036939381288 440.24785010578523L650.5801266314461 360.7191027215669Q650.3044637289012 359.30140779419287 650.3044637289012 358.73039178177834L650.3044637289012 358.73039178177834Q650.3044637289012 354.47730699965626 655.1285645234378 354.47730699965626L655.1285645234378 354.47730699965626Q658.1017858294583 354.47730699965626 659.3816493055599 355.7571704757578Q660.6418225743369 357.03703395185937 661.0750071354789 359.57707069673785L661.0750071354789 359.57707069673785L676.0986353241788 440.5235130083302Q676.8074827878658 444.50093488790736 677.9495148126948 445.9973906445799Q679.0718566301992 447.4741561939279 681.1983990212602 447.4741561939279L681.1983990212602 447.4741561939279Q683.4824630709185 447.4741561939279 684.6048048884229 445.83986898598283Q685.7468369132521 444.2252719853624 686.3178529256666 440.6810346669273L686.3178529256666 440.6810346669273L697.5018906860616 367.6697459071646Q698.5060912596183 361.13259707538435 701.6959048462099 357.8049520375203Q704.8857184328015 354.47730699965626 709.8476506786105 354.47730699965626L709.8476506786105 354.47730699965626Q720.0471780727737 354.47730699965626 722.0358890125624 367.6697459071646L722.0358890125624 367.6697459071646L733.2396169802821 440.6810346669273Q733.8106329926966 444.3631034366349 734.9329748102011 445.9186298152814Q736.0750068350302 447.4741561939279 738.3393806773637 447.4741561939279L738.3393806773637 447.4741561939279Q740.3280916171523 447.4741561939279 741.5291942639553 445.9186298152814Q742.7302969107583 444.3631034366349 743.4391443744453 440.5235130083302L743.4391443744453 440.5235130083302L758.4627725631451 359.57707069673785Q758.8959571242872 356.8795122932622 760.2348912223626 355.6784096464593Q761.5935155277627 354.47730699965626 764.4289053825108 354.47730699965626L764.4289053825108 354.47730699965626Q769.2530061770475 354.47730699965626 769.2530061770475 358.73039178177834L769.2530061770475 358.73039178177834Q769.2530061770475 359.30140779419287 768.957653067178 360.7191027215669L768.957653067178 360.7191027215669L753.500840317336 440.24785010578523Q751.9453139386894 448.1830036576149 748.479837449553 452.3770178177631Q744.9946707530918 456.55134177058665 738.4772121286362 456.55134177058665L738.4772121286362 456.55134177058665Q732.3929380653226 456.55134177058665 728.9077713688614 452.5739198910095Q725.4422948797248 448.616188218757 724.1624314036234 440.38568155705775L724.1624314036234 440.38568155705775L713.0965348871761 368.79208772466905Q712.6830405333586 365.95669786992096 711.8954322403731 364.755595223118Q711.1275141547121 363.554492576315 709.8476506786105 363.554492576315L709.8476506786105 363.554492576315Q708.4299557512365 363.554492576315 707.6423474582509 364.755595223118Q706.87442937259 365.95669786992096 706.441244811448 368.79208772466905L706.441244811448 368.79208772466905L695.3753482950007 440.38568155705775Q694.1151750262237 448.616188218757 690.6300083297626 452.5739198910095Q687.1645318406261 456.55134177058665 681.0605675699878 456.55134177058665L681.0605675699878 456.55134177058665ZM815.1705696581064 456.55134177058665Q796.740535602244 456.55134177058665 786.6788396593533 447.06066184011047Q776.6171437164626 437.55029170230966 776.6171437164626 420.1244582200038L776.6171437164626 420.1244582200038Q776.6171437164626 403.3877819940604 786.8166711106257 393.81834123428564Q797.0358887121135 384.24890047451095 814.757075304289 384.24890047451095L814.757075304289 384.24890047451095Q825.6654501621392 384.24890047451095 834.1716197263834 387.71437696364745Q842.6777892906276 391.19954366010865 847.4231292558657 397.50041000399324Q852.1881594284284 403.82096655520246 852.1881594284284 411.8939515583046L852.1881594284284 411.8939515583046Q852.1881594284284 417.8403941703457 848.8408241832398 421.1089685862358Q845.5131791453757 424.37754300212595 839.7045679846071 424.37754300212595L839.7045679846071 424.37754300212595L787.2498556717678 424.37754300212595Q787.2498556717678 435.28591785997617 794.613993211183 441.44895275258824Q801.9978209579227 447.6119876452004 815.1705696581064 447.6119876452004L815.1705696581064 447.6119876452004Q823.2632448685332 447.6119876452004 829.0718560293019 445.83986898598283Q834.8804671900705 444.0677503267653 839.9802308871521 440.11001865451277L839.9802308871521 440.11001865451277Q842.6777892906276 437.8456448121792 844.3908373278712 437.8456448121792L844.3908373278712 437.8456448121792Q845.6510105966481 437.8456448121792 846.7930426214773 438.9679866296837L846.7930426214773 438.9679866296837Q848.7817535612658 440.6810346669273 848.7817535612658 442.5122239481188L848.7817535612658 442.5122239481188Q848.7817535612658 443.92991887549283 847.0687055240221 445.6429669127364L847.0687055240221 445.6429669127364Q841.2600943632535 451.15622496363545 833.4627722626964 453.853783367111Q825.6654501621392 456.55134177058665 815.1705696581064 456.55134177058665L815.1705696581064 456.55134177058665ZM787.5255185743129 416.0092048891542L836.593515227314 416.0092048891542Q839.1335519721925 416.0092048891542 840.413415448294 414.9459336936237Q841.6932789243956 413.88266249809317 841.6932789243956 411.0472726433451L841.6932789243956 411.0472726433451Q841.6932789243956 405.9475089462635 838.286873057233 401.8322556154139Q834.8804671900705 397.7170022845643 828.7174322974583 395.4526284422307Q822.5543974048462 393.1882545998972 814.757075304289 393.1882545998972L814.757075304289 393.1882545998972Q802.1356524091952 393.1882545998972 794.830585491754 399.35128949250935Q787.5255185743129 405.5143243851214 787.5255185743129 416.0092048891542L787.5255185743129 416.0092048891542ZM910.0182983408941 456.55134177058665Q896.4123650795684 456.55134177058665 884.9920448312776 451.943833256621Q873.5914147903114 447.3363247426554 867.2117876171283 439.2633397395533L867.2117876171283 439.2633397395533Q866.0697555922992 437.8456448121792 866.0697555922992 436.2704282262081L866.0697555922992 436.2704282262081Q866.0697555922992 434.30140749374414 868.1962979833602 432.4505280052281L868.1962979833602 432.4505280052281Q869.3383300081892 431.60384909026857 870.6181934842908 431.60384909026857L870.6181934842908 431.60384909026857Q873.1582302291692 431.60384909026857 875.1469411689579 434.0060543838746L875.1469411689579 434.0060543838746Q880.9555523297265 440.38568155705775 889.8161456258142 443.8708482535189Q898.6767389219019 447.3363247426554 910.0182983408941 447.3363247426554L910.0182983408941 447.3363247426554Q922.5018897847156 447.3363247426554 929.295011311716 442.7288162286898Q936.1078230460413 438.1213077147242 936.1078230460413 429.61513815048L936.1078230460413 429.61513815048Q936.1078230460413 422.2510006110649 929.5116035922872 417.70256271907317Q922.915384138533 413.1738150344062 907.1829084861461 409.62957771597104L907.1829084861461 409.62957771597104Q886.6263320392227 405.08113982397936 877.6279072918625 398.20925746768023Q868.6294825445023 391.3373751113811 868.6294825445023 379.9958156923889L868.6294825445023 379.9958156923889Q868.6294825445023 368.2210717122545 878.6124176580945 361.3491893559554Q888.6150429790113 354.47730699965626 905.6273821074997 354.47730699965626L905.6273821074997 354.47730699965626Q918.5244679051384 354.47730699965626 928.9405875798726 359.0060546843233Q939.3763974619314 363.554492576315 943.767313695326 371.2139832255997L943.767313695326 371.2139832255997Q944.6139926102855 372.63167815297373 944.6139926102855 373.89185142175063L944.6139926102855 373.89185142175063Q944.6139926102855 376.1759154714088 942.2117873166794 377.8692733013278L942.2117873166794 377.8692733013278Q941.2075867431229 378.4402893137423 939.9277232670213 378.4402893137423L939.9277232670213 378.4402893137423Q936.8166705097283 378.4402893137423 935.1233126798094 376.0183938128117L935.1233126798094 376.0183938128117Q931.0080593489597 370.0719512007706 923.4864001509475 366.88213761417904Q915.9844311602599 363.69232402758746 905.6273821074997 363.69232402758746L905.6273821074997 363.69232402758746Q879.40002595108 363.69232402758746 879.40002595108 379.9958156923889L879.40002595108 379.9958156923889Q879.40002595108 384.95774793819794 882.0975843545556 388.285392976062Q884.7951427580311 391.6130380139261 890.8203461993709 394.2515257954277Q896.8455496407105 396.87032336960476 907.6160930472881 399.41036011448324L907.6160930472881 399.41036011448324Q928.5861638480292 404.37229236029236 937.8011808759603 411.4016963751886Q947.0161979038916 418.4114101827602 947.0161979038916 429.61513815048L947.0161979038916 429.61513815048Q947.0161979038916 442.09872959430135 937.0332627902994 449.32503568244397Q927.0306374693826 456.55134177058665 910.0182983408941 456.55134177058665L910.0182983408941 456.55134177058665ZM984.880466589173 456.55134177058665Q979.4853497822219 456.55134177058665 975.5276181099694 453.0858652814501Q971.5501962303922 449.60069858498895 970.408164205563 443.7920874242203L970.408164205563 443.7920874242203L959.6376207989854 389.486495622865Q959.2241264451679 387.2221217805315 960.6418213725419 385.7453562311835Q962.0595162999159 384.24890047451095 964.461721593522 384.24890047451095L964.461721593522 384.24890047451095Q967.29711144827 384.24890047451095 968.6360455463455 385.174340218769Q969.9946698517456 386.099779963027 970.408164205563 388.501985256633L970.408164205563 388.501985256633L980.6273818070508 442.65005539939125Q981.4740607220103 447.6119876452004 984.880466589173 447.6119876452004L984.880466589173 447.6119876452004Q986.8691775289615 447.6119876452004 987.8536878951935 446.48964582769594Q988.8381982614255 445.3476138028668 989.2713828225676 442.65005539939125L989.2713828225676 442.65005539939125L996.9308734718522 394.8816124298162Q997.6397209355393 390.19534308655204 1000.8886051441048 387.2221217805315Q1004.1571795599949 384.24890047451095 1008.5480957933895 384.24890047451095L1008.5480957933895 384.24890047451095Q1012.939012026784 384.24890047451095 1016.2863472719728 387.2221217805315Q1019.6139923098368 390.19534308655204 1020.3228397735238 394.8816124298162L1020.3228397735238 394.8816124298162L1027.8248087642114 442.65005539939125Q1028.2579933253535 445.3476138028668 1029.321264520884 446.48964582769594Q1030.3845357164146 447.6119876452004 1032.3732466562033 447.6119876452004L1032.3732466562033 447.6119876452004Q1035.7796525233657 447.6119876452004 1036.6263314383252 442.65005539939125L1036.6263314383252 442.65005539939125L1046.6880273812158 388.501985256633Q1047.121211942358 386.099779963027 1048.4601460404335 385.174340218769Q1049.799080138509 384.24890047451095 1052.634469993257 384.24890047451095L1052.634469993257 384.24890047451095Q1055.3320283967325 384.24890047451095 1056.6906527021326 385.80442685315745Q1058.029586800208 387.35995323180396 1057.596402239066 389.486495622865L1057.596402239066 389.486495622865L1046.6880273812158 443.7920874242203Q1045.4081639051144 449.7385300362614 1041.4504322328619 453.144935903424Q1037.4730103532847 456.55134177058665 1032.3732466562033 456.55134177058665L1032.3732466562033 456.55134177058665Q1020.8938557859383 456.55134177058665 1018.7673133948773 443.5164245216754L1018.7673133948773 443.5164245216754L1011.2456541968651 396.87032336960476Q1010.5368067331781 393.1882545998972 1008.5480957933895 393.1882545998972L1008.5480957933895 393.1882545998972Q1006.4215534023284 393.1882545998972 1005.8505373899139 396.87032336960476L1005.8505373899139 396.87032336960476L998.3485683992262 443.5164245216754Q996.2220260081652 456.55134177058665 984.880466589173 456.55134177058665L984.880466589173 456.55134177058665ZM1095.3228394730752 456.55134177058665Q1081.4215531018797 456.55134177058665 1073.5454701720241 450.4473774999484Q1065.6890774494927 444.3631034366349 1065.6890774494927 433.59256003005714L1065.6890774494927 433.59256003005714Q1065.6890774494927 422.9598480747519 1073.978654733166 416.7180523528412Q1082.2682320168392 410.47625663093055 1096.5830127418521 410.47625663093055L1096.5830127418521 410.47625663093055Q1104.9513508548237 410.47625663093055 1111.4097388573055 412.7406304732641Q1117.8484366524626 415.0050043155976 1121.3926739708977 418.8445947439023L1121.3926739708977 418.8445947439023L1121.3926739708977 409.76740916724356Q1121.3926739708977 401.6944241641414 1116.076317993245 397.4413393820193Q1110.7599620155925 393.1882545998972 1100.560434621429 393.1882545998972L1100.560434621429 393.1882545998972Q1087.367995713921 393.1882545998972 1077.7394843321722 399.41036011448324L1077.7394843321722 399.41036011448324Q1075.3175888312414 400.8280550418573 1073.762062452595 400.8280550418573L1073.762062452595 400.8280550418573Q1072.344367525221 400.8280550418573 1070.9266725978468 399.70571322435285L1070.9266725978468 399.70571322435285Q1069.3711462192005 398.42584974825127 1069.3711462192005 396.4371388084627L1069.3711462192005 396.4371388084627Q1069.3711462192005 394.31059641740165 1071.2220257077165 392.8929014900276L1071.2220257077165 392.8929014900276Q1076.321789404798 388.9351698177751 1084.1781821273294 386.592035146143Q1092.054265057185 384.24890047451095 1100.2847717188843 384.24890047451095L1100.2847717188843 384.24890047451095Q1115.308399907584 384.24890047451095 1123.597977191257 391.0617122088362Q1131.8875544749303 397.85483373583673 1131.8875544749303 410.2005937283856L1131.8875544749303 410.2005937283856L1131.8875544749303 451.018393512363Q1131.8875544749303 456.55134177058665 1126.7877907778488 456.55134177058665L1126.7877907778488 456.55134177058665Q1124.5234169355153 456.55134177058665 1123.1057220081411 455.05488601391403Q1121.6880270807671 453.5781204645661 1121.6880270807671 451.15622496363545L1121.6880270807671 451.15622496363545L1121.6880270807671 446.05646126655387Q1112.8865044066533 456.55134177058665 1095.3228394730752 456.55134177058665L1095.3228394730752 456.55134177058665ZM1096.5830127418521 447.90734075507Q1107.6489092582992 447.90734075507 1114.599552443897 443.7133265949218Q1121.5501956294947 439.53900264209824 1121.5501956294947 432.88371256637015L1121.5501956294947 432.88371256637015Q1121.5501956294947 426.2087322833174 1115.091807627013 422.6054243429084Q1108.6334196245314 418.98242619517475 1096.8783658517216 418.98242619517475L1096.8783658517216 418.98242619517475Q1086.9545013601034 418.98242619517475 1081.559384553152 422.74325579418087Q1076.1839579535258 426.504085393187 1076.1839579535258 433.59256003005714L1076.1839579535258 433.59256003005714Q1076.1839579535258 440.5235130083302 1081.4215531018797 444.2252719853624Q1086.6591482502338 447.90734075507 1096.5830127418521 447.90734075507L1096.5830127418521 447.90734075507ZM1155.9883682402888 497.5266632131611Q1153.5861629466829 497.5266632131611 1152.2275386412828 496.0302074564885Q1150.8886045432073 494.5534419071406 1150.8886045432073 491.855883503665L1150.8886045432073 491.855883503665L1150.8886045432073 389.91968018400706Q1150.8886045432073 387.2221217805315 1152.2275386412828 385.7453562311835Q1153.5861629466829 384.24890047451095 1155.9883682402888 384.24890047451095L1155.9883682402888 384.24890047451095Q1158.548095192492 384.24890047451095 1159.8870292905676 385.80442685315745Q1161.2456535959677 387.35995323180396 1161.2456535959677 389.91968018400706L1161.2456535959677 389.91968018400706L1161.2456535959677 398.9968657606658Q1172.1540284538178 384.24890047451095 1192.7106049007414 384.24890047451095L1192.7106049007414 384.24890047451095Q1209.860775480502 384.24890047451095 1219.7255693501465 393.7395804049871Q1229.5706730124662 403.24995054278793 1229.5706730124662 419.82910511013426L1229.5706730124662 419.82910511013426Q1229.5706730124662 431.03283307785404 1225.0419253277992 439.3224103615272Q1220.4934874358073 447.6119876452004 1212.066078700862 452.0816647078935Q1203.6189797585916 456.55134177058665 1192.2774203395993 456.55134177058665L1192.2774203395993 456.55134177058665Q1182.5110775065782 456.55134177058665 1175.0681791378643 453.0858652814501Q1167.6252807691508 449.60069858498895 1161.38348504724 442.09872959430135L1161.38348504724 442.09872959430135L1161.38348504724 491.855883503665Q1161.38348504724 494.39592024854346 1159.9657901198661 495.9711368345146Q1158.548095192492 497.5266632131611 1155.9883682402888 497.5266632131611L1155.9883682402888 497.5266632131611ZM1191.5685728759122 447.6119876452004Q1204.4853488808756 447.6119876452004 1211.7707255909922 440.1690892764867Q1219.0757925084336 432.726190907773 1219.0757925084336 419.5534422075893L1219.0757925084336 419.5534422075893Q1219.0757925084336 406.794187861223 1211.9282472495893 399.98137612689777Q1204.7610117834206 393.1882545998972 1191.4307414246398 393.1882545998972L1191.4307414246398 393.1882545998972Q1177.3916236021719 393.1882545998972 1169.3186385990698 400.3357998587413Q1161.2456535959677 407.50303532491 1161.2456535959677 419.82910511013426L1161.2456535959677 419.82910511013426Q1161.2456535959677 428.0596117718335 1164.986792987649 434.3604781157181Q1168.7476225866553 440.6810346669273 1175.6195049429543 444.14651115606387Q1182.5110775065782 447.6119876452004 1191.5685728759122 447.6119876452004L1191.5685728759122 447.6119876452004ZM1292.6580972806105 456.55134177058665Q1277.9101319944557 456.55134177058665 1266.7851648560345 450.25047542670205Q1255.6601977176133 443.92991887549283 1249.556233446975 432.3717671759295Q1243.4719593836617 420.83330568369087 1243.4719593836617 405.65215583639394L1243.4719593836617 405.65215583639394Q1243.4719593836617 390.35286474514913 1249.556233446975 378.7159522162873Q1255.6601977176133 367.0987298947501 1266.7851648560345 360.77817334354086Q1277.9101319944557 354.47730699965626 1292.5202658293379 354.47730699965626L1292.5202658293379 354.47730699965626Q1304.70850416329 354.47730699965626 1314.9867923867514 358.5925603305059Q1325.2650806102133 362.7078136613555 1331.073691770982 370.0719512007706L1331.073691770982 370.0719512007706Q1332.2157237958108 371.3518146768722 1332.2157237958108 373.18300395806364L1332.2157237958108 373.18300395806364Q1332.2157237958108 375.46706800772176 1330.2270128560226 376.8847629350958L1330.2270128560226 376.8847629350958Q1328.947149379921 377.7314418500553 1327.3916230012742 377.7314418500553L1327.3916230012742 377.7314418500553Q1324.6940645977988 377.7314418500553 1322.8628753166072 375.6048994589943L1322.8628753166072 375.6048994589943Q1318.3144374246153 369.79628829822565 1310.5171153240585 366.665545333608Q1302.7197932235013 363.554492576315 1292.5202658293379 363.554492576315L1292.5202658293379 363.554492576315Q1280.7455218492037 363.554492576315 1272.1015208336871 368.6542562733966Q1263.4575198181706 373.75401997047817 1258.8500113042046 383.264390108279Q1254.2425027902393 392.75507003875515 1254.2425027902393 405.65215583639394L1254.2425027902393 405.65215583639394Q1254.2425027902393 418.4114101827602 1258.8500113042046 427.84301949126245Q1263.4575198181706 437.27462879976474 1272.1802816629856 442.37439249684627Q1280.8833533004763 447.4741561939279 1292.6580972806105 447.4741561939279L1292.6580972806105 447.4741561939279Q1303.5664721384605 447.4741561939279 1311.7182179708611 444.2843426073363Q1319.8699638032622 441.09452902074474 1324.5562331465262 435.4237493112486L1324.5562331465262 435.4237493112486Q1326.682775537587 433.1593754689151 1329.0849808311932 433.1593754689151L1329.0849808311932 433.1593754689151Q1330.798028868437 433.1593754689151 1331.9203706859412 434.14388583514705L1331.9203706859412 434.14388583514705Q1333.9090816257299 435.85693387239064 1333.9090816257299 437.8456448121792L1333.9090816257299 437.8456448121792Q1333.9090816257299 439.53900264209824 1332.6292181496283 441.09452902074474L1332.6292181496283 441.09452902074474Q1326.8206069888597 448.1830036576149 1316.1288244115808 452.3770178177631Q1305.417351626977 456.55134177058665 1292.6580972806105 456.55134177058665L1292.6580972806105 456.55134177058665ZM1374.4512185071626 456.55134177058665Q1360.5696223432915 456.55134177058665 1352.6935394134357 450.4473774999484Q1344.8371466909048 444.3631034366349 1344.8371466909048 433.59256003005714L1344.8371466909048 433.59256003005714Q1344.8371466909048 422.9598480747519 1353.126723974578 416.7180523528412Q1361.4163012582512 410.47625663093055 1375.7310819832637 410.47625663093055L1375.7310819832637 410.47625663093055Q1384.0994200962355 410.47625663093055 1390.557808098717 412.7406304732641Q1396.9965058938747 415.0050043155976 1400.5407432123093 418.8445947439023L1400.5407432123093 418.8445947439023L1400.5407432123093 409.76740916724356Q1400.5407432123093 401.6944241641414 1395.2243872346567 397.4413393820193Q1389.908031257004 393.1882545998972 1379.708503862841 393.1882545998972L1379.708503862841 393.1882545998972Q1366.5160649553327 393.1882545998972 1356.8875535735842 399.41036011448324L1356.8875535735842 399.41036011448324Q1354.4656580726532 400.8280550418573 1352.9101316940069 400.8280550418573L1352.9101316940069 400.8280550418573Q1351.492436766633 400.8280550418573 1350.0747418392589 399.70571322435285L1350.0747418392589 399.70571322435285Q1348.5192154606125 398.42584974825127 1348.5192154606125 396.4371388084627L1348.5192154606125 396.4371388084627Q1348.5192154606125 394.31059641740165 1350.3504047418037 392.8929014900276L1350.3504047418037 392.8929014900276Q1355.46985864621 388.9351698177751 1363.326251368741 386.592035146143Q1371.2023342985967 384.24890047451095 1379.4131507529714 384.24890047451095L1379.4131507529714 384.24890047451095Q1394.456469148996 384.24890047451095 1402.7460464326691 391.0617122088362Q1411.0356237163423 397.85483373583673 1411.0356237163423 410.2005937283856L1411.0356237163423 410.2005937283856L1411.0356237163423 451.018393512363Q1411.0356237163423 456.55134177058665 1405.9358600192604 456.55134177058665L1405.9358600192604 456.55134177058665Q1403.6714861769274 456.55134177058665 1402.2537912495532 455.05488601391403Q1400.836096322179 453.5781204645661 1400.836096322179 451.15622496363545L1400.836096322179 451.15622496363545L1400.836096322179 446.05646126655387Q1392.0345736480654 456.55134177058665 1374.4512185071626 456.55134177058665L1374.4512185071626 456.55134177058665ZM1375.7310819832637 447.90734075507Q1386.7969784997113 447.90734075507 1393.7476216853088 443.7133265949218Q1400.678574663582 439.53900264209824 1400.678574663582 432.88371256637015L1400.678574663582 432.88371256637015Q1400.678574663582 426.2087322833174 1394.2398768684247 422.6054243429084Q1387.7814888659432 418.98242619517475 1376.0264350931334 418.98242619517475L1376.0264350931334 418.98242619517475Q1366.1025706015153 418.98242619517475 1360.7074537945641 422.74325579418087Q1355.312336987613 426.504085393187 1355.312336987613 433.59256003005714L1355.312336987613 433.59256003005714Q1355.312336987613 440.5235130083302 1360.5696223432915 444.2252719853624Q1365.8072174916456 447.90734075507 1375.7310819832637 447.90734075507L1375.7310819832637 447.90734075507ZM1435.4121003842456 456.55134177058665Q1433.00989509064 456.55134177058665 1431.6709609925642 455.05488601391403Q1430.3123366871641 453.5781204645661 1430.3123366871641 450.88056206109053L1430.3123366871641 450.88056206109053L1430.3123366871641 389.91968018400706Q1430.3123366871641 387.2221217805315 1431.5922001632657 385.7453562311835Q1432.8720636393673 384.24890047451095 1435.4121003842456 384.24890047451095L1435.4121003842456 384.24890047451095Q1437.8339958851766 384.24890047451095 1439.1729299832518 385.7453562311835Q1440.531554288652 387.2221217805315 1440.531554288652 389.91968018400706L1440.531554288652 389.91968018400706L1440.531554288652 398.42584974825127Q1450.1600656704009 385.666595401885 1467.1724047988891 385.666595401885L1467.1724047988891 385.666595401885L1470.7166421173242 385.666595401885Q1473.4142005207996 385.666595401885 1474.969726899446 386.867698048688Q1476.5252532780928 388.06880069549095 1476.5252532780928 390.19534308655204L1476.5252532780928 390.19534308655204Q1476.5252532780928 392.3218854776131 1474.969726899446 393.46391750244214Q1473.4142005207996 394.60594952727126 1470.7166421173242 394.60594952727126L1470.7166421173242 394.60594952727126L1466.7589104450717 394.60594952727126Q1454.7085035623923 394.60594952727126 1447.6790995474962 401.4778318835704Q1440.6693857399246 408.3497142398695 1440.6693857399246 420.1244582200038L1440.6693857399246 420.1244582200038L1440.6693857399246 450.88056206109053Q1440.6693857399246 453.44028901329364 1439.3107614345245 454.99581539194014Q1437.9718273364488 456.55134177058665 1435.4121003842456 456.55134177058665L1435.4121003842456 456.55134177058665ZM1517.9337592818092 456.55134177058665Q1500.3504041409064 456.55134177058665 1490.2099473687172 446.9819010108119Q1480.0694905965279 437.4124602510372 1480.0694905965279 420.83330568369087L1480.0694905965279 420.83330568369087Q1480.0694905965279 410.3384251796581 1484.5391676592208 402.0488478959849Q1489.008844721914 393.7395804049871 1497.593775115457 388.99424043974903Q1506.159015301675 384.24890047451095 1518.2094221843545 384.24890047451095L1518.2094221843545 384.24890047451095Q1528.4286397858423 384.24890047451095 1535.576185044686 388.06880069549095Q1542.7434205108548 391.90839112379564 1548.2763687690785 398.70151265079625L1548.2763687690785 398.70151265079625L1548.4142002203507 353.1974435235547Q1548.4142002203507 350.4998851200791 1549.7531343184264 349.0231195707312Q1551.1117586238265 347.52666381405857 1553.6517953687053 347.52666381405857L1553.6517953687053 347.52666381405857Q1556.0736908696358 347.52666381405857 1557.412624967711 349.0231195707312Q1558.7515590657868 350.4998851200791 1558.7515590657868 353.1974435235547L1558.7515590657868 353.1974435235547L1558.7515590657868 450.88056206109053Q1558.7515590657868 453.5781204645661 1557.412624967711 455.05488601391403Q1556.0736908696358 456.55134177058665 1553.6517953687053 456.55134177058665L1553.6517953687053 456.55134177058665Q1551.2495900750991 456.55134177058665 1549.831895147725 455.05488601391403Q1548.4142002203507 453.5781204645661 1548.4142002203507 450.88056206109053L1548.4142002203507 450.88056206109053L1548.4142002203507 441.80337648443174Q1543.4522679745419 449.0296825725744 1535.7140164959587 452.79051217158053Q1527.9954552247 456.55134177058665 1517.9337592818092 456.55134177058665L1517.9337592818092 456.55134177058665ZM1518.7804381967685 447.6119876452004Q1532.524202909367 447.6119876452004 1540.4790466685213 440.3266109350838Q1548.4142002203507 433.0215440176426 1548.4142002203507 420.4001211225488L1548.4142002203507 420.4001211225488Q1548.4142002203507 412.03178300957705 1544.3777077187997 405.8687481169649Q1540.3215250099242 399.70571322435285 1533.5874741048979 396.4371388084627Q1526.853423199871 393.1882545998972 1518.9182696480411 393.1882545998972L1518.9182696480411 393.1882545998972Q1505.5879992892606 393.1882545998972 1498.086030298573 400.76898441988334Q1490.5643711005605 408.3497142398695 1490.5643711005605 420.83330568369087L1490.5643711005605 420.83330568369087Q1490.5643711005605 434.14388583514705 1497.9481988473003 440.8779367401737Q1505.3123363867157 447.6119876452004 1518.7804381967685 447.6119876452004L1518.7804381967685 447.6119876452004ZM1608.6662346337475 456.55134177058665Q1598.742370142129 456.55134177058665 1589.9408474680154 452.79051217158053Q1581.1590150012262 449.0296825725744 1576.0592513041447 442.37439249684627L1576.0592513041447 442.37439249684627Q1575.055050730588 440.9566975694723 1575.055050730588 439.53900264209824L1575.055050730588 439.53900264209824Q1575.055050730588 438.1213077147242 1575.8426590235736 437.0580365191937Q1576.6302673165592 435.99476532366316 1577.890440585336 435.4237493112486L1577.890440585336 435.4237493112486Q1579.0324726101653 435.0102549574312 1579.741320073852 435.0102549574312L1579.741320073852 435.0102549574312Q1581.0211835499535 435.0102549574312 1581.9466232942118 435.6403415918196Q1582.8523728311452 436.2704282262081 1584.1322363072468 437.6881231535821L1584.1322363072468 437.6881231535821Q1593.3472533351778 447.4741561939279 1608.6662346337475 447.4741561939279L1608.6662346337475 447.4741561939279Q1616.0303721731625 447.4741561939279 1620.5788100651544 444.93411944904943Q1625.1075577498214 442.37439249684627 1625.1075577498214 437.8456448121792L1625.1075577498214 437.8456448121792Q1625.1075577498214 434.5770703962891 1623.3354390906038 432.5292888345266Q1621.5633204313863 430.4618170654395 1617.3889964785626 428.68969840622196Q1613.1949823184145 426.9175797470044 1603.7043023879382 423.6686955384389L1603.7043023879382 423.6686955384389Q1594.4892853600072 420.53795257382126 1589.2320000043283 417.70256271907317Q1583.9944048559742 414.86717286432514 1581.434677903771 411.2638649239161Q1578.8946411588927 407.64086677618246 1578.8946411588927 402.4032716278284L1578.8946411588927 402.4032716278284Q1578.8946411588927 394.1727649661292 1586.042186417737 389.21083272032007Q1593.2094218839056 384.24890047451095 1605.1219973153125 384.24890047451095L1605.1219973153125 384.24890047451095Q1613.9038297821016 384.24890047451095 1621.4254889801136 387.30088260983Q1628.9274579708012 390.35286474514913 1632.767048399106 395.4526284422307L1632.767048399106 395.4526284422307Q1633.8893902166105 397.0081548208772 1633.8893902166105 398.42584974825127L1633.8893902166105 398.42584974825127Q1633.8893902166105 400.5523921393123 1631.6250163742766 401.8322556154139L1631.6250163742766 401.8322556154139Q1630.2073214469028 402.67893453037334 1628.7896265195286 402.67893453037334L1628.7896265195286 402.67893453037334Q1626.387421225923 402.67893453037334 1624.2608788348616 400.5523921393123L1624.2608788348616 400.5523921393123Q1620.5788100651544 396.87032336960476 1616.1682036244351 395.0982047103872Q1611.7772873910403 393.3260860511697 1604.9841658640398 393.3260860511697L1604.9841658640398 393.3260860511697Q1597.4625066660278 393.3260860511697 1593.4850847864504 395.7282913447757Q1589.527353114198 398.15018684570634 1589.527353114198 402.5411030791009L1589.527353114198 402.5411030791009Q1589.527353114198 405.7899872876664 1591.1616403221428 407.71962760548104Q1592.7762373227633 409.62957771597104 1596.399235470497 411.106343265319Q1600.022233618231 412.6027990219916 1609.079728987565 415.57602032801213L1609.079728987565 415.57602032801213Q1619.2989465890528 418.98242619517475 1624.8909654692502 422.0344083304939Q1630.5026745567725 425.08639046581294 1632.9836406796771 428.7684592355205Q1635.4646068025818 432.4505280052281 1635.4646068025818 437.8456448121792L1635.4646068025818 437.8456448121792Q1635.4646068025818 446.3518143764235 1628.0217084338678 451.45157807350506Q1620.5788100651544 456.55134177058665 1608.6662346337475 456.55134177058665L1608.6662346337475 456.55134177058665Z " fill="#ffffff" transform="matrix(0.5350161728318196,0,0,0.5350161728318196,0,73.94138755256004)"/></g></svg>